<svg id="Layer_1" data-name="Layer 1" xmlns="http://www.w3.org/2000/svg" viewBox="0 0 500 500"><defs><style>.cls-1{fill:#f9cfcd;}.cls-2{fill:#d1e9d4;}.cls-3{fill:#9c9c9e;}.cls-4,.cls-5{fill:none;stroke:#9b9b9d;stroke-miterlimit:10;}.cls-4{stroke-width:3px;}.cls-6{fill:#4ab96d;}.cls-7{fill:#e74c3c;}</style></defs><title>final-icons</title><path class="cls-1" d="M475.52,248.2l-198.44-.5s45,31.67,99.22,44.35c21.63,5.06,59.92,27.54,99.22,24.05Z"/><polygon class="cls-2" points="239.28 248.2 29.75 248.2 33.19 181.42 239.28 248.2"/><polygon class="cls-3" points="19.09 4.9 5 26.56 33.19 26.56 19.09 4.9"/><line class="cls-4" x1="19.09" y1="26.56" x2="19.09" y2="492.05"/><line class="cls-5" x1="475.52" y1="248.2" x2="21.08" y2="248.2"/><polygon class="cls-3" points="495 481.01 473.34 466.92 473.34 495.1 495 481.01"/><line class="cls-4" x1="473.34" y1="481.01" x2="7.85" y2="481.01"/><polygon class="cls-6" points="470.81 329.78 475.52 314.98 37.9 166.62 33.19 181.42 470.81 329.78"/><polygon class="cls-7" points="277.08 247.7 475.52 314.98 470.81 329.78 228.7 247.7 277.08 247.7"/></svg>