<svg id="Layer_1" data-name="Layer 1" xmlns="http://www.w3.org/2000/svg" viewBox="0 0 500 500"><defs><style>.cls-1{fill:#f9cfcd;}.cls-2{fill:#d1e9d4;}.cls-3{fill:#9c9c9e;}.cls-4,.cls-5{fill:none;stroke:#9b9b9d;stroke-miterlimit:10;}.cls-4{stroke-width:3px;}.cls-6{fill:#4ab96d;}.cls-7{fill:#e74c3c;}</style></defs><title>final-icons</title><polygon class="cls-1" points="37.57 331.59 37.57 248.2 186.57 248.2 37.57 331.59"/><path class="cls-2" d="M475.52,248.2H198.06l73.15-50.52,204.31-.38Z"/><polygon class="cls-3" points="19.09 4.9 5 26.56 33.19 26.56 19.09 4.9"/><line class="cls-4" x1="19.09" y1="26.56" x2="19.09" y2="492.05"/><line class="cls-5" x1="475.52" y1="248.2" x2="21.08" y2="248.2"/><polygon class="cls-3" points="495 481.01 473.34 466.92 473.34 495.1 495 481.01"/><line class="cls-4" x1="473.34" y1="481.01" x2="7.85" y2="481.01"/><polygon class="cls-6" points="45.69 344.88 37.57 331.59 270.55 189.32 475.52 189.32 475.52 204.9 274.93 204.9 45.69 344.88"/><polygon class="cls-7" points="174.13 248.2 37.57 331.59 45.69 344.88 204.03 248.2 174.13 248.2"/></svg>