<?xml version="1.0" encoding="iso-8859-1"?>
<!-- Uploaded to: SVG Repo, www.svgrepo.com, Generator: SVG Repo Mixer Tools -->
<svg version="1.1" id="Layer_1" xmlns="http://www.w3.org/2000/svg" xmlns:xlink="http://www.w3.org/1999/xlink" 
	 viewBox="0 0 511.999 511.999" xml:space="preserve">
<polygon style="fill:#00B4D7;" points="12.892,167.872 79.747,101.018 255.999,277.271 432.252,101.018 499.107,167.872 
	255.999,410.98 "/>
<polygon style="fill:#0093C4;" points="255.999,277.271 79.747,101.018 43.28,137.484 255.999,350.203 468.718,137.484 
	432.252,101.018 "/>
<path d="M255.999,423.873L0,167.872l79.747-79.747l176.253,176.253L432.252,88.126l79.747,79.747L255.999,423.873z M25.785,167.872
	l230.214,230.215l230.215-230.215l-53.963-53.963L255.999,290.163L79.747,113.91L25.785,167.872z"/>
<rect x="47.238" y="222.573" transform="matrix(-0.7071 -0.7071 0.7071 -0.7071 70.8723 492.7345)" style="fill:#FFFFFF;" width="180.493" height="18.233"/>
</svg>