<?xml version="1.0" encoding="iso-8859-1"?>
<!-- Uploaded to: SVG Repo, www.svgrepo.com, Generator: SVG Repo Mixer Tools -->
<svg height="800px" width="800px" version="1.1" id="Layer_1" xmlns="http://www.w3.org/2000/svg" xmlns:xlink="http://www.w3.org/1999/xlink" 
	 viewBox="0 0 512 512" xml:space="preserve">
<g transform="translate(1 1)">
	<g>
		<path style="fill:#00DA6C;" d="M178.264,144.067c-64.853,0-145.067-19.627-145.067-136.533
			C98.051,7.533,178.264,27.16,178.264,144.067"/>
		<path style="fill:#00DA6C;" d="M415.491,109.933c-8.533,60.587-61.44,146.773-151.893,160.427c-2.56,0-5.973,0.853-8.533,0.853
			C272.131,185.027,327.598,133.827,415.491,109.933"/>
	</g>
	<path style="fill:#00AD55;" d="M415.491,110.787c-9.387,62.293-64,149.333-159.573,160.427c0,5.973-0.853,11.947-0.853,17.92
		c116.907,0,179.2-114.347,179.2-179.2C428.291,109.933,421.464,109.933,415.491,110.787"/>
	<path style="fill:#00DA6C;" d="M432.558,127.853c-9.387,62.293-64,149.333-159.573,160.427l0,0
		c-0.853,9.387,7.68,17.92,17.067,17.067C395.011,294.253,451.331,188.44,451.331,127C445.358,127,438.531,127,432.558,127.853"/>
	<path style="fill:#FFE100;" d="M400.131,442.733c23.04,18.773-63.147-8.533-42.667-8.533c0-14.507-11.093-25.6-25.6-25.6
		c-7.68,0-13.653,3.413-18.773,8.533c-3.413-9.387-12.8-17.067-23.893-17.067c-14.507,0-25.6,11.093-25.6,25.6
		c-14.507,0-26.453,11.947-25.6,27.307c0,6.827,4.267,13.653,9.387,17.92l0,0c2.56-11.093,12.8-18.773,24.747-18.773
		c14.507,0,25.6,11.947,25.6,26.453c13.653-0.853,25.6,11.093,25.6,24.747h100.693c13.653,0,26.453-10.24,27.307-23.893
		c0.853-14.507-11.093-27.307-25.6-27.307c0-8.533-4.267-15.36-10.24-20.48c-5.973-5.12-15.36,0-15.36,8.533V442.733z"/>
	<path style="fill:#FFA800;" d="M451.331,451.267c0-14.507-11.093-25.6-25.6-25.6c-4.267,0-9.387,1.707-12.8,3.413
		c7.68,4.267,12.8,12.8,12.8,22.187c14.507,0,25.6,11.093,25.6,25.6c0,14.507-11.093,25.6-25.6,25.6h25.6
		c14.507,0,25.6-11.093,25.6-25.6C476.931,462.36,465.838,451.267,451.331,451.267"/>
	<path style="fill:#FFE100;" d="M297.731,476.867c0-14.507-11.093-25.6-25.6-25.6c-11.947,0-21.333,7.68-24.747,17.92
		c0,0,0,0.853-0.853,0.853c-5.12-4.267-8.533-10.24-9.387-17.92c0-0.853,0-0.853,0-1.707h-17.067
		c-34.133,0-21.333,7.68-24.747,17.92c0,5.973-4.267,8.533-9.387,8.533c-4.267,0-7.68-2.56-9.387-5.973
		c-4.267-5.973,3.413-11.093-6.827-11.093c-7.68,0.853-14.507-5.12-25.6-25.6c-3.413-6.827-5.12,3.413-10.24,8.533
		c-3.413-9.387-12.8-8.533-23.893-8.533c-14.507,0-25.6,2.56-25.6,17.067c-14.507,0-26.453,11.947-25.6,27.307
		c0.853,13.653,12.8,23.893,27.307,23.893h237.227C323.331,487.96,312.238,476.867,297.731,476.867"/>
	<path style="fill:#FFFFFF;" d="M58.798,478.573c-0.853-15.36,11.093-27.307,25.6-27.307c0-9.387,5.12-17.92,12.8-22.187
		c-3.413-1.707-7.68-3.413-12.8-3.413c-14.507,0-25.6,11.093-25.6,25.6c-14.507,0-26.453,11.947-25.6,27.307
		c0.853,13.653,12.8,23.893,27.307,23.893h25.6C71.598,502.467,59.651,492.227,58.798,478.573"/>
	<path d="M451.331,511h-128c-5.12,0-8.533-3.413-8.533-8.533c0-9.387-7.68-17.067-17.067-17.067c-5.12,0-8.533-3.413-8.533-8.533
		c0-9.387-7.68-17.067-17.067-17.067c-7.68,0-14.507,5.12-16.213,11.947c0,0.853-0.853,1.707-0.853,2.56
		c-0.853,2.56-3.413,4.267-5.973,4.267c-2.56,0.853-5.12,0-7.68-1.707c-7.68-5.973-11.947-14.507-11.947-23.893
		c-0.853-9.387,2.56-18.773,9.387-25.6c4.267-5.12,10.24-8.533,17.067-9.387c3.413-15.36,17.067-26.453,33.28-26.453
		c10.24,0,20.48,5.12,26.453,12.8c5.12-2.56,10.24-4.267,16.213-4.267c16.213,0,29.867,11.093,33.28,26.453
		c10.24,1.707,18.773,7.68,23.04,14.507c0,0.853,0.853,1.707,2.56,1.707c0.853,0,1.707-0.853,2.56-1.707
		c4.267-14.507,17.92-23.893,32.427-23.893c16.213,0,29.867,11.093,33.28,26.453c15.36,3.413,26.453,17.067,26.453,33.28
		C485.464,495.64,470.104,511,451.331,511z M331.011,493.933h120.32c9.387,0,17.067-7.68,17.067-17.067s-7.68-17.067-17.067-17.067
		c-5.12,0-8.533-3.413-8.533-8.533c0-9.387-7.68-17.067-17.067-17.067c-7.68,0-14.507,5.12-16.213,11.947
		c-2.56,7.68-10.24,13.653-18.773,13.653c-6.827,0-12.8-3.413-17.067-9.387c-1.707-4.267-8.533-7.68-16.213-7.68
		c-5.12,0-8.533-3.413-8.533-8.533c0-9.387-7.68-17.067-17.067-17.067c-5.12,0-9.387,1.707-12.8,5.12
		c-1.707,2.56-5.12,3.413-7.68,2.56c-2.56-0.853-5.12-2.56-5.973-5.12c-2.56-6.827-8.533-11.093-16.213-11.093
		c-9.387,0-17.067,7.68-17.067,17.067c0,5.12-3.413,8.533-8.533,8.533c-5.12,0-9.387,1.707-12.8,5.12
		c-2.56,3.413-4.267,8.533-4.267,12.8c0,0.853,0,0.853,0,1.707c5.973-6.827,15.36-11.093,25.6-11.093
		c16.213,0,29.867,11.093,33.28,26.453C317.358,471.747,327.598,481.987,331.011,493.933z M239.704,467.48L239.704,467.48
		L239.704,467.48L239.704,467.48z M459.864,451.267L459.864,451.267L459.864,451.267z"/>
	<path d="M323.331,511H60.504c-18.773,0-34.987-14.507-35.84-32.427c-0.853-9.387,2.56-18.773,9.387-25.6
		c4.267-5.12,10.24-8.533,17.067-9.387c3.413-15.36,17.067-26.453,33.28-26.453c10.24,0,20.48,5.12,26.453,12.8
		c5.12-2.56,10.24-4.267,16.213-4.267c16.213,0,29.867,11.093,33.28,26.453c10.24,1.707,18.773,7.68,23.04,14.507
		c0,0.853,0.853,1.707,2.56,1.707c0.853,0,1.707-0.853,2.56-1.707c4.267-14.507,17.92-23.893,32.427-23.893h17.067
		c5.12,0,8.533,3.413,8.533,8.533c0,0,0,0.853,0,1.707s0,0.853,0,1.707c5.973-6.827,15.36-11.093,25.6-11.093
		c16.213,0,29.867,11.093,33.28,26.453c15.36,3.413,26.453,17.067,26.453,33.28C331.864,507.587,328.451,511,323.331,511z
		 M84.398,434.2c-9.387,0-17.067,7.68-17.067,17.067c0,5.12-3.413,8.533-8.533,8.533s-9.387,1.707-12.8,5.12
		c-2.56,3.413-4.267,8.533-4.267,12.8c0.853,8.533,8.533,16.213,18.773,16.213h252.587c-2.56-5.12-8.533-8.533-14.507-8.533
		c-5.12,0-8.533-3.413-8.533-8.533c0-9.387-7.68-17.067-17.067-17.067c-7.68,0-14.507,5.12-16.213,11.947
		c0,0.853-0.853,1.707-0.853,2.56c-0.853,2.56-3.413,4.267-5.973,4.267c-2.56,0.853-5.12,0-7.68-1.707
		c-5.12-4.267-9.387-10.24-11.093-17.067h-10.24c-7.68,0-14.507,5.12-16.213,11.947c-2.56,7.68-10.24,13.653-18.773,13.653
		c-6.827,0-12.8-3.413-17.067-9.387c-1.707-4.267-8.533-7.68-16.213-7.68c-5.12,0-8.533-3.413-8.533-8.533
		c0-9.387-7.68-17.067-17.067-17.067c-5.12,0-9.387,1.707-12.8,5.12c-1.707,2.56-5.12,3.413-7.68,2.56
		c-2.56-0.853-5.12-2.56-5.973-5.12C98.051,438.467,91.224,434.2,84.398,434.2z M306.264,476.867L306.264,476.867L306.264,476.867z"
		/>
	<path d="M178.264,152.6c-101.547,0-153.6-48.64-153.6-145.067c0-5.12,3.413-8.533,8.533-8.533c101.547,0,153.6,48.64,153.6,145.067
		C186.798,149.187,183.384,152.6,178.264,152.6z M41.731,16.067c2.56,77.653,44.373,116.907,128,119.467
		C166.318,57.88,124.504,18.627,41.731,16.067z"/>
	<path d="M212.398,461.507c-0.853,0-1.707,0-2.56,0c-4.267-1.707-6.827-5.973-5.973-10.24
		c42.667-145.92-8.533-271.36-32.427-301.227c-2.56-3.413-2.56-9.387,0.853-11.947c3.413-2.56,9.387-2.56,11.947,0.853
		c29.867,36.693,80.213,167.253,35.84,316.587C219.224,458.947,215.811,461.507,212.398,461.507z"/>
	<path d="M255.064,297.667c-5.12,0-8.533-3.413-8.533-8.533c0-65.707,64.853-187.733,187.733-187.733
		c5.12,0,8.533,3.413,8.533,8.533C442.798,175.64,377.944,297.667,255.064,297.667z M425.731,118.467
		c-101.547,5.973-157.013,102.4-162.133,162.133C365.144,274.627,420.611,178.2,425.731,118.467z"/>
	<path d="M229.464,332.653c-0.853,0-1.707,0-2.56-0.853c-4.267-1.707-6.827-5.973-5.12-11.093
		c3.413-9.387,20.48-30.72,50.347-62.293c45.227-47.787,47.787-47.787,52.053-46.933c4.267,0.853,7.68,5.12,7.68,9.387
		c0,2.56-1.707,5.12-4.267,6.827c-9.387,7.68-84.48,82.773-89.6,98.987C236.291,330.093,232.878,332.653,229.464,332.653z"/>
	<path d="M178.264,152.6c-2.56,0-4.267-0.853-5.973-2.56C144.984,120.173,99.758,88.6,99.758,88.6
		c-4.267-2.56-5.973-8.533-2.56-11.947c2.56-4.267,7.68-5.12,11.947-2.56c1.707,1.707,46.933,32.427,75.947,64
		c3.413,3.413,2.56,8.533-0.853,11.947C182.531,151.747,179.971,152.6,178.264,152.6z"/>
</g>
</svg>